**ABCDEFGHIJKLMNOPQRSTUVWXYZabcdefghijklmnopqrstuvwxyz**************************
**PARASOLID !"#$%&'()*+,-./:;<=>?@[\]^_`{|}~0123456789**************************
**PART1;
MC=AMD64;
MC_MODEL=Intel64 Family 6 Model 142 Stepping 10, GenuineIntel;
MC_ID=unknown;
OS=Windows_NT;
OS_RELEASE=unknown;
FRU=Parasolid Version 33.1, build 255,  1- 8-2022;
APPL=SOLIDWORKS 2022-2022076;
SITE=;
USER=unknown;
FORMAT=text;
GUISE=transmit;
KEY=FILEmakeProjectedPlanarWire.x_t;
DATE=Mon Feb 27 20:26:37 2023;
**PART2;
SCH=SCH_3301255_33103;
USFLD_SIZE=0;
**PART3;
**END_OF_HEADER*****************************************************************
T51 : TRANSMIT FILE created by modeller version 330125523 SCH_3301255_33103_1300
6230 0 12 35 CCCI7 lattice222 0 CCCI4 mesh1006 0 I8 polyline1008 0 CCCCCCCDI5 ow
ner1040 0 CCCCCCI13 boundary_mesh1006 0 I17 boundary_polyline1008 0 CCCA16 index
_map_offset0 0 1 dA9 index_map82 0 A17 node_id_index_map82 0 A20 schema_embeddin
g_map82 0 A5 child12 0 A14 lowest_node_id0 0 1 dA16 mesh_offset_data206 0 Z1 304
5 0 0 0 0 0 0 0 0 0 1e3 1e-8 0 2 0 1 0 3 1 3 4 5 6 0 0 7 8 9 0 0 0 0 0 0 0 13 25
5 3 82 0 1 0 10 0 0 7 10 50 255 4 3 0 10 0 0 0 +0 0 .074 0 0 -1 -1 0 0 30 255 5
 53 0 8 11 0 0 +-1493179700840796e-33 -.017 .074 1 -878341000494586e-31 0 29 255
 6 80 0 9 12 0 -.0395 -.017 .074 19 8 CCCCCCCA5 owner12 0 Z7 81 0 1 0 0 3 V0 16
 255 8 51 0 ?13 0 14 5 0 0 1 18 255 9 78 0 15 0 16 6 ?1 17 255 15 0 0 0 0 9 17 1
8 0 19 +18 16 75 0 20 9 21 12 ?1 17 20 0 22 19 23 16 24 14 0 13 +18 21 72 0 23 1
6 25 26 ?1 29 12 77 0 16 26 6 .0395 -.017 .074 29 26 74 0 21 27 12 .0395 .017 .0
74 29 27 71 0 25 28 26 -.0395 .017 .074 18 25 69 0 17 21 29 27 ?1 29 28 68 0 29
 30 27 .0375 -.015 .074 18 29 66 0 31 25 32 28 ?1 29 30 65 0 32 33 28 -.0375 -.0
15 .074 18 32 63 0 34 29 35 30 ?1 29 33 62 0 35 36 30 -.0375 .015 .074 18 35 60
 0 37 32 38 33 ?1 29 36 59 0 38 0 33 .0375 .015 .074 18 38 57 0 39 35 0 36 ?1 17
 39 0 40 37 41 38 31 42 0 43 -15 255 40 7 0 39 10 22 17 37 0 40 34 39 35 43 44 0
 45 -17 41 0 40 39 34 29 46 47 0 0 +17 31 0 0 0 0 29 39 42 0 41 +16 42 9 0 ?31 4
4 0 48 0 0 1 17 43 0 0 0 0 38 37 44 0 0 +16 44 15 0 ?43 49 42 50 0 0 1 16 49 21
 0 ?34 47 44 51 0 0 1 30 50 17 0 44 48 51 0 +1387778780781446e-33 .015 .074 1 -9
25185853854297e-31 0 30 48 11 0 42 0 50 0 +.0375 -1734723475976805e-32 .074 -462
592926927149e-30 -1 0 30 51 23 0 49 50 52 0 +-.0375 867361737988404e-32 .074 -23
12964634635745e-31 -1 0 30 52 29 0 47 51 53 0 +-277555756156289e-32 -.015 .074 1
 -1850371707708595e-31 0 16 47 27 0 ?41 18 49 52 0 0 1 30 53 35 0 18 52 54 0 +-.
0395 806136203542163e-32 .074 -204085114820801e-30 -1 0 16 18 33 0 ?15 55 47 53
 0 0 1 30 54 41 0 55 53 11 0 +2239769551261195e-33 .017 .074 1 -131751150074188e
-30 0 16 55 39 0 ?23 14 18 54 0 0 1 30 11 47 0 14 54 5 0 +.0395 0 .074 0 -1 0 16
 14 45 0 ?20 8 55 11 0 0 1 17 23 0 22 20 17 21 56 55 0 24 +15 22 8 0 17 10 0 17
 17 0 22 23 19 25 15 18 0 56 -17 56 0 0 0 0 25 23 55 0 0 -17 24 0 0 0 0 21 20 14
 0 0 -17 19 0 22 17 20 9 13 8 0 0 -17 13 0 0 0 0 16 19 8 0 0 +14 255 10 1 0 ?0 0
 40 3 4 +0 0 0 0 3 17 34 0 40 41 37 32 45 49 0 46 +17 45 0 0 0 0 35 34 49 0 0 -1
7 46 0 0 0 0 32 41 47 0 0 -1 0 
